<svg xmlns:xlink="http://www.w3.org/1999/xlink" xmlns="http://www.w3.org/2000/svg" fill="currentColor" viewBox="0 0 24 24"   class="x1lliihq x1k90msu x2h7rmj x1qfuztq x198g3q0 x1qx5ct2 xw4jnvo" width="1"  height="1" ><path d="M.5 12C.5 5.649 5.649.5 12 .5S23.5 5.649 23.5 12 18.351 23.5 12 23.5c-1.922 0-3.736-.472-5.33-1.308a.63.63 0 0 0-.447-.069l-3.4.882a1.5 1.5 0 0 1-1.828-1.829l.882-3.4a.63.63 0 0 0-.07-.445A11.454 11.454 0 0 1 .5 12zm17.56-1.43a.819.819 0 0 0-1.125-1.167L14 11.499l-3.077-2.171a1.5 1.5 0 0 0-2.052.308l-2.93 3.793a.819.819 0 0 0 1.123 1.167L10 12.5l3.076 2.172a1.5 1.5 0 0 0 2.052-.308l2.931-3.793z" fill="#050505"></path></svg>