<svg xmlns:xlink="http://www.w3.org/1999/xlink" xmlns="http://www.w3.org/2000/svg" fill="currentColor" viewBox="0 0 24 24"   class="x1lliihq x1k90msu x2h7rmj x1qfuztq x198g3q0 x1qx5ct2 xw4jnvo" width="1"  height="1" ><path d="M12 1a3 3 0 1 0 0 6 3 3 0 0 0 0-6zM4 9a3 3 0 1 0 0 6 3 3 0 0 0 0-6zm8 0a3 3 0 1 0 0 6 3 3 0 0 0 0-6zm8 0a3 3 0 1 0 0 6 3 3 0 0 0 0-6zm0-8a3 3 0 1 0 0 6 3 3 0 0 0 0-6zM4 1a3 3 0 1 0 0 6 3 3 0 0 0 0-6zm8 16a3 3 0 1 0 0 6 3 3 0 0 0 0-6zm8 0a3 3 0 1 0 0 6 3 3 0 0 0 0-6zM4 17a3 3 0 1 0 0 6 3 3 0 0 0 0-6z" fill="#050505"></path></svg>